<svg xmlns="http://www.w3.org/2000/svg" width="80" height="80" viewBox="0 0 80 80" fill="none">
  <rect width="80" height="80" fill="none"/>
  <!-- Adire-inspired geometric pattern -->
  <path d="M0 0L20 20L0 40" stroke="rgba(212,168,83,0.08)" stroke-width="1"/>
  <path d="M40 0L60 20L40 40" stroke="rgba(212,168,83,0.08)" stroke-width="1"/>
  <path d="M0 40L20 60L0 80" stroke="rgba(212,168,83,0.08)" stroke-width="1"/>
  <path d="M40 40L60 60L40 80" stroke="rgba(212,168,83,0.08)" stroke-width="1"/>
  <path d="M20 0L40 20L20 40" stroke="rgba(196,91,40,0.06)" stroke-width="1"/>
  <path d="M60 0L80 20L60 40" stroke="rgba(196,91,40,0.06)" stroke-width="1"/>
  <path d="M20 40L40 60L20 80" stroke="rgba(196,91,40,0.06)" stroke-width="1"/>
  <path d="M60 40L80 60L60 80" stroke="rgba(196,91,40,0.06)" stroke-width="1"/>
  <!-- Cross stitches -->
  <circle cx="20" cy="20" r="2" fill="rgba(212,168,83,0.05)"/>
  <circle cx="60" cy="20" r="2" fill="rgba(212,168,83,0.05)"/>
  <circle cx="20" cy="60" r="2" fill="rgba(212,168,83,0.05)"/>
  <circle cx="60" cy="60" r="2" fill="rgba(212,168,83,0.05)"/>
  <circle cx="40" cy="40" r="1.5" fill="rgba(196,91,40,0.04)"/>
  <circle cx="0" cy="0" r="1.5" fill="rgba(196,91,40,0.04)"/>
  <circle cx="80" cy="0" r="1.5" fill="rgba(196,91,40,0.04)"/>
  <circle cx="0" cy="80" r="1.5" fill="rgba(196,91,40,0.04)"/>
  <circle cx="80" cy="80" r="1.5" fill="rgba(196,91,40,0.04)"/>
</svg>
